<?xml version="1.0" encoding="utf-8"?>
<!-- Generator: Adobe Illustrator 24.0.3, SVG Export Plug-In . SVG Version: 6.00 Build 0)  -->
<svg version="1.1" id="Calque_1" xmlns="http://www.w3.org/2000/svg" xmlns:xlink="http://www.w3.org/1999/xlink" x="0px" y="0px"
	 viewBox="0 0 149.87 60.5" style="enable-background:new 0 0 149.87 60.5;" xml:space="preserve">
<style type="text/css">
	.st0{fill:#1E1E1E;}
</style>
<path id="XMLID_2332_" class="st0" d="M55.82,23.85c-6.65,0-13.23,0.21-19.8,1.04c-3.14,0.4-11.57,0.16-13.39,2.74
	c5.43,2.19,11.49,2.18,16.87,5.11c2.32,1.26,5.47,3.03,5.63,6.05c0.24,4.48-3.65,2.76-6.43,2.09c-5.99-1.44-12.27-2.12-18.36-3.09
	C15.66,37.04,4.54,37.65,2.61,32c-1.94-5.67,6.71-10.28,10.41-13.01c5.99-4.42,11.94-8.93,17.97-13.3c1.66-1.2,4.83-4.11,7.17-3.27
	c3.27,1.18,1.76,4.21,0.33,6.27c-0.93,1.33-13.41,13.39-13.43,13.38c1.01,0.45,7.04-1.43,8.03-1.62c4.03-0.77,8.23-1.2,12.4-1.52
	c10.9-0.83,22.29-1.84,33.16,0c5.08,0.86,8.63,3.18,12.95,5.63c4.1,2.32,8.16,0.13,12.82-0.42c9.63-1.13,19.52,0.4,28.5,3.95
	c6.14,2.42,19.86,9.95,13.16,18.48c-1.75,2.23-4.73,3.52-4.22,0.26c0.35-2.21,2.02-2.37,1.35-5.04c-0.48-1.92-2.11-3.09-3.64-4.11
	c-7.58-5.08-18.98-7.5-27.88-7.63c-3.39-0.05-10.19,0.45-13.14,2.3c-2.62,1.65-1.28,4.51-2.14,7.9
	c-2.24,8.8-13.25,15.88-22.24,11.31c-13.02-6.62,4.57-19.46,11.4-22.29C79.77,22.68,63.5,23.85,55.82,23.85z M80.9,46.01
	c6.87-0.28,9.36-4.34,9.16-10.62C87.76,36.47,70.29,46.01,80.9,46.01C82.07,45.96,79.96,46.01,80.9,46.01z"/>
</svg>
