<?xml version="1.0" encoding="utf-8"?>
<!-- Generator: Adobe Illustrator 24.0.3, SVG Export Plug-In . SVG Version: 6.00 Build 0)  -->
<svg version="1.1" id="Calque_1" xmlns="http://www.w3.org/2000/svg" xmlns:xlink="http://www.w3.org/1999/xlink" x="0px" y="0px"
	 viewBox="0 0 171.18 170.94" style="enable-background:new 0 0 171.18 170.94;" xml:space="preserve">
<style type="text/css">
	.st0{fill-rule:evenodd;clip-rule:evenodd;fill:#C2C7C4;stroke:#000000;stroke-width:8;stroke-miterlimit:10;}
	.st1{fill-rule:evenodd;clip-rule:evenodd;fill:#D1DED1;stroke:#000000;stroke-width:8;stroke-miterlimit:10;}
	.st2{fill-rule:evenodd;clip-rule:evenodd;fill:#C2C7C4;}
	.st3{fill-rule:evenodd;clip-rule:evenodd;fill:#D1DED1;}
	.st4{fill-rule:evenodd;clip-rule:evenodd;fill:#82E0FF;stroke:#000000;stroke-width:4;stroke-miterlimit:10;}
</style>
<g>
	<g>
		<path class="st0" d="M114.69,41.75c4.07-1.76,8.56-2.74,13.28-2.74c18.49,0,33.48,14.99,33.48,33.48
			c0,18.25-14.61,33.09-32.77,33.47v0.01h-0.71H39.24h-1.26l0.2-0.03C22.06,105.28,9,92.01,9,75.74C9,59.04,22.54,45.5,39.24,45.5
			c1.48,0,2.94,0.11,4.37,0.31c3.78-16.47,18.52-28.75,36.14-28.75C95.87,17.06,109.59,27.36,114.69,41.75L114.69,41.75z"/>
		<path class="st1" d="M114.69,41.75c4.07-1.76,8.56-2.74,13.28-2.74c18.49,0,33.48,14.99,33.48,33.48c0,1.09-0.05,2.16-0.15,3.22
			c-6.75,6.37-15.79,10.34-25.76,10.54v0.01h-0.83H31.98h-1.46v-0.03c-8.19-0.34-15.65-3.49-21.45-8.51C9.03,77.07,9,76.41,9,75.74
			C9,59.04,22.54,45.5,39.24,45.5c1.48,0,2.94,0.11,4.37,0.31c3.78-16.47,18.52-28.75,36.14-28.75
			C95.87,17.06,109.59,27.36,114.69,41.75L114.69,41.75z"/>
	</g>
	<g>
		<path class="st2" d="M114.69,41.75c4.07-1.76,8.56-2.74,13.28-2.74c18.49,0,33.48,14.99,33.48,33.48
			c0,18.25-14.61,33.09-32.77,33.47v0.01h-0.71H39.24h-1.26v-0.03C21.86,105.28,9,92.01,9,75.74C9,59.04,22.54,45.5,39.24,45.5
			c1.48,0,2.94,0.11,4.37,0.31c3.78-16.47,18.52-28.75,36.14-28.75C95.87,17.06,109.59,27.36,114.69,41.75L114.69,41.75z"/>
		<path class="st3" d="M114.69,41.75c4.07-1.76,8.56-2.74,13.28-2.74c18.49,0,33.48,14.99,33.48,33.48c0,1.09-0.05,2.16-0.15,3.22
			c-6.75,6.37-15.79,10.34-25.76,10.54v0.01h-0.83H31.98h-1.46v-0.03c-8.19-0.34-15.65-3.49-21.45-8.51C9.03,77.07,9,76.41,9,75.74
			C9,59.04,22.54,45.5,39.24,45.5c1.48,0,2.94,0.11,4.37,0.31c3.78-16.47,18.52-28.75,36.14-28.75
			C95.87,17.06,109.59,27.36,114.69,41.75L114.69,41.75z"/>
	</g>
	<path class="st4" d="M44.16,149.78c0,4.7-3.81,8.51-8.51,8.51c-4.7,0-8.51-3.81-8.51-8.51c0-2.38,3.27-9.99,4.25-12.74l4.25-11.92
		l4.25,11.92C40.89,139.8,44.16,147.4,44.16,149.78L44.16,149.78z"/>
	<path class="st4" d="M87.4,137.95c0,4.7-3.81,8.51-8.51,8.51c-4.7,0-8.51-3.81-8.51-8.51c0-2.38,3.27-9.99,4.25-12.74l4.25-11.92
		l4.25,11.92C84.13,127.96,87.4,135.56,87.4,137.95L87.4,137.95z"/>
	<path class="st4" d="M140.94,139.44c0,4.7-3.81,8.51-8.51,8.51c-4.7,0-8.51-3.81-8.51-8.51c0-2.39,3.27-9.99,4.25-12.74l4.25-11.92
		l4.25,11.92C137.67,129.45,140.94,137.05,140.94,139.44L140.94,139.44z"/>
	<path class="st4" d="M115.76,128.28c0,3.06-2.48,5.55-5.55,5.55c-3.06,0-5.55-2.48-5.55-5.55c0-1.56,2.13-6.51,2.77-8.31l2.77-7.78
		l2.77,7.78C113.62,121.76,115.76,126.72,115.76,128.28L115.76,128.28z"/>
	<path class="st4" d="M60.86,128.25c0,3.06-2.48,5.55-5.55,5.55s-5.55-2.48-5.55-5.55c0-1.56,2.13-6.51,2.77-8.31l2.77-7.77
		l2.77,7.77C58.73,121.74,60.86,126.7,60.86,128.25L60.86,128.25z"/>
</g>
</svg>
