<?xml version="1.0" encoding="utf-8"?>
<!-- Generator: Adobe Illustrator 24.0.3, SVG Export Plug-In . SVG Version: 6.00 Build 0)  -->
<svg version="1.1" id="Calque_1" xmlns="http://www.w3.org/2000/svg" xmlns:xlink="http://www.w3.org/1999/xlink" x="0px" y="0px"
	 viewBox="0 0 171.18 170.94" style="enable-background:new 0 0 171.18 170.94;" xml:space="preserve">
<style type="text/css">
	.st0{fill-rule:evenodd;clip-rule:evenodd;fill:#C2C7C4;stroke:#000000;stroke-width:8;stroke-miterlimit:10;}
	.st1{fill-rule:evenodd;clip-rule:evenodd;fill:#D1DED1;stroke:#000000;stroke-width:8;stroke-miterlimit:10;}
	.st2{fill-rule:evenodd;clip-rule:evenodd;fill:#C2C7C4;}
	.st3{fill-rule:evenodd;clip-rule:evenodd;fill:#D1DED1;}
	.st4{fill-rule:evenodd;clip-rule:evenodd;fill:#82E0FF;stroke:#000000;stroke-width:4;stroke-miterlimit:10;}
	.st5{fill-rule:evenodd;clip-rule:evenodd;fill:#D1DED1;stroke:#000000;stroke-width:4;stroke-miterlimit:10;}
	.st6{fill-rule:evenodd;clip-rule:evenodd;}
	.st7{fill-rule:evenodd;clip-rule:evenodd;fill:#FFFFFF;}
</style>
<g>
	<path class="st5" d="M64.65,56.8c2.35-1.01,4.93-1.58,7.64-1.58c10.65,0,19.28,8.63,19.28,19.28c0,10.51-8.41,19.06-18.87,19.28v0
		H72.3H21.2h-0.73v-0.02c-9.28-0.38-16.69-8.02-16.69-17.4c0-9.62,7.8-17.41,17.41-17.41c0.86,0,1.69,0.06,2.52,0.18
		c2.18-9.48,10.67-16.56,20.81-16.56C53.81,42.59,61.71,48.52,64.65,56.8L64.65,56.8z"/>
	<path class="st6" d="M75.56,69.61c5.69-11.84,17.73-19.55,31.11-19.55c14.99,0,28.15,9.67,32.77,23.66
		c0.3-0.01,0.61-0.01,0.91-0.01c15.92,0,28.82,12.91,28.82,28.82c0,15.3-11.96,27.92-27.18,28.78c-0.19,0.03-0.39,0.05-0.59,0.05
		H65.97c-0.11,0-0.22,0-0.32-0.01c-17.02-0.49-30.61-14.45-30.61-31.51c0-17.41,14.12-31.52,31.53-31.52
		C69.62,68.31,72.64,68.75,75.56,69.61L75.56,69.61z"/>
	<path class="st7" d="M77.6,74.26c-3.38-1.46-7.12-2.28-11.04-2.28c-15.38,0-27.85,12.47-27.85,27.85
		c0,15.18,12.15,27.52,27.25,27.84v0.01h0.59h73.79h1.05v-0.02c13.4-0.55,24.1-11.59,24.1-25.12c0-13.89-11.26-25.15-25.15-25.15
		c-1.23,0-2.44,0.09-3.63,0.26c-3.14-13.7-15.4-23.91-30.05-23.91C93.25,53.74,81.84,62.3,77.6,74.26L77.6,74.26z"/>
</g>
</svg>
