<?xml version="1.0" encoding="utf-8"?>
<!-- Generator: Adobe Illustrator 24.0.3, SVG Export Plug-In . SVG Version: 6.00 Build 0)  -->
<svg version="1.1" id="Calque_1" xmlns="http://www.w3.org/2000/svg" xmlns:xlink="http://www.w3.org/1999/xlink" x="0px" y="0px"
	 viewBox="0 0 171.18 170.94" style="enable-background:new 0 0 171.18 170.94;" xml:space="preserve">
<style type="text/css">
	.st0{fill-rule:evenodd;clip-rule:evenodd;fill:#C2C7C4;stroke:#000000;stroke-width:8;stroke-miterlimit:10;}
	.st1{fill-rule:evenodd;clip-rule:evenodd;fill:#D1DED1;stroke:#000000;stroke-width:8;stroke-miterlimit:10;}
	.st2{fill-rule:evenodd;clip-rule:evenodd;fill:#C2C7C4;}
	.st3{fill-rule:evenodd;clip-rule:evenodd;fill:#D1DED1;}
	.st4{fill-rule:evenodd;clip-rule:evenodd;fill:#82E0FF;stroke:#000000;stroke-width:4;stroke-miterlimit:10;}
	.st5{fill-rule:evenodd;clip-rule:evenodd;fill:#D1DED1;stroke:#000000;stroke-width:4;stroke-miterlimit:10;}
	.st6{fill-rule:evenodd;clip-rule:evenodd;}
	.st7{fill-rule:evenodd;clip-rule:evenodd;fill:#FFFFFF;}
	.st8{fill-rule:evenodd;clip-rule:evenodd;fill:#FFFFFF;stroke:#000000;stroke-width:3;stroke-miterlimit:10;}
</style>
<g>
	<path class="st6" d="M-83.44,180.61c5.69-11.84,17.73-19.55,31.11-19.55c14.99,0,28.15,9.67,32.77,23.66
		c0.3-0.01,0.61-0.01,0.91-0.01c15.92,0,28.82,12.91,28.82,28.82c0,15.3-11.96,27.92-27.18,28.78c-0.19,0.03-0.39,0.05-0.59,0.05
		h-75.43c-0.11,0-0.22,0-0.32-0.01c-17.02-0.49-30.61-14.45-30.61-31.51c0-17.41,14.12-31.52,31.53-31.52
		C-89.38,179.31-86.36,179.75-83.44,180.61L-83.44,180.61z"/>
	<path class="st7" d="M-81.4,185.26c-3.38-1.46-7.12-2.28-11.04-2.28c-15.38,0-27.85,12.47-27.85,27.85
		c0,15.18,12.15,27.52,27.25,27.84v0.01h0.59h73.79h1.05v-0.02c13.4-0.55,24.1-11.59,24.1-25.12c0-13.89-11.26-25.15-25.15-25.15
		c-1.23,0-2.44,0.09-3.63,0.26c-3.14-13.7-15.4-23.91-30.05-23.91C-65.75,164.74-77.16,173.3-81.4,185.26L-81.4,185.26z"/>
</g>
<g>
	<g>
		<path class="st0" d="M114.69,38.75c4.07-1.76,8.56-2.74,13.28-2.74c18.49,0,33.48,14.99,33.48,33.48
			c0,18.25-14.61,33.09-32.77,33.47v0.01h-0.71H39.24h-1.26l0.2-0.03C22.06,102.28,9,89.01,9,72.74C9,56.04,22.54,42.5,39.24,42.5
			c1.48,0,2.94,0.11,4.37,0.31c3.78-16.47,18.52-28.75,36.14-28.75C95.87,14.06,109.59,24.36,114.69,38.75L114.69,38.75z"/>
		<path class="st1" d="M114.69,38.75c4.07-1.76,8.56-2.74,13.28-2.74c18.49,0,33.48,14.99,33.48,33.48c0,1.09-0.05,2.16-0.15,3.22
			c-6.75,6.37-15.79,10.34-25.76,10.54v0.01h-0.83H31.98h-1.46v-0.03c-8.19-0.34-15.65-3.49-21.45-8.51C9.03,74.07,9,73.41,9,72.74
			C9,56.04,22.54,42.5,39.24,42.5c1.48,0,2.94,0.11,4.37,0.31c3.78-16.47,18.52-28.75,36.14-28.75
			C95.87,14.06,109.59,24.36,114.69,38.75L114.69,38.75z"/>
	</g>
	<g>
		<path class="st2" d="M114.69,38.75c4.07-1.76,8.56-2.74,13.28-2.74c18.49,0,33.48,14.99,33.48,33.48
			c0,18.25-14.61,33.09-32.77,33.47v0.01h-0.71H39.24h-1.26v-0.03C21.86,102.28,9,89.01,9,72.74C9,56.04,22.54,42.5,39.24,42.5
			c1.48,0,2.94,0.11,4.37,0.31c3.78-16.47,18.52-28.75,36.14-28.75C95.87,14.06,109.59,24.36,114.69,38.75L114.69,38.75z"/>
		<path class="st3" d="M114.69,38.75c4.07-1.76,8.56-2.74,13.28-2.74c18.49,0,33.48,14.99,33.48,33.48c0,1.09-0.05,2.16-0.15,3.22
			c-6.75,6.37-15.79,10.34-25.76,10.54v0.01h-0.83H31.98h-1.46v-0.03c-8.19-0.34-15.65-3.49-21.45-8.51C9.03,74.07,9,73.41,9,72.74
			C9,56.04,22.54,42.5,39.24,42.5c1.48,0,2.94,0.11,4.37,0.31c3.78-16.47,18.52-28.75,36.14-28.75
			C95.87,14.06,109.59,24.36,114.69,38.75L114.69,38.75z"/>
	</g>
	<path class="st8" d="M41.46,87.24c1.59,0,2.89,1.29,2.89,2.89c0,1.59-1.29,2.89-2.89,2.89c-1.59,0-2.89-1.29-2.89-2.89
		C38.57,88.54,39.86,87.24,41.46,87.24L41.46,87.24z"/>
	<path class="st8" d="M85.48,96.15c2.12,0,3.85,1.72,3.85,3.85c0,2.12-1.72,3.85-3.85,3.85c-2.13,0-3.85-1.72-3.85-3.85
		C81.63,97.87,83.36,96.15,85.48,96.15L85.48,96.15z"/>
	<path class="st8" d="M125.78,88.45c1.39,0,2.53,1.13,2.53,2.53c0,1.39-1.13,2.53-2.53,2.53c-1.39,0-2.53-1.13-2.53-2.53
		C123.25,89.58,124.39,88.45,125.78,88.45L125.78,88.45z"/>
	<path class="st8" d="M26.54,125.62c1.39,0,2.53,1.13,2.53,2.53c0,1.39-1.13,2.53-2.53,2.53c-1.4,0-2.53-1.13-2.53-2.53
		C24.02,126.75,25.15,125.62,26.54,125.62L26.54,125.62z"/>
	<path class="st8" d="M102.21,142.22c1.4,0,2.53,1.13,2.53,2.53c0,1.4-1.13,2.53-2.53,2.53c-1.39,0-2.53-1.13-2.53-2.53
		C99.68,143.35,100.81,142.22,102.21,142.22L102.21,142.22z"/>
	<path class="st8" d="M143.71,109.74c1.39,0,2.53,1.13,2.53,2.53c0,1.4-1.13,2.53-2.53,2.53c-1.39,0-2.53-1.13-2.53-2.53
		C141.18,110.87,142.31,109.74,143.71,109.74L143.71,109.74z"/>
	<path class="st8" d="M112.19,106.49c2.39,0,4.33,1.94,4.33,4.33c0,2.39-1.94,4.33-4.33,4.33s-4.33-1.94-4.33-4.33
		C107.86,108.43,109.8,106.49,112.19,106.49L112.19,106.49z"/>
	<path class="st8" d="M51.32,112.75c2.19,0,3.97,1.78,3.97,3.97c0,2.19-1.78,3.97-3.97,3.97c-2.19,0-3.97-1.78-3.97-3.97
		C47.35,114.53,49.13,112.75,51.32,112.75L51.32,112.75z"/>
	<path class="st8" d="M77.14,122.08c2.88,0,5.22,2.34,5.22,5.22s-2.34,5.22-5.22,5.22c-2.88,0-5.22-2.34-5.22-5.22
		S74.25,122.08,77.14,122.08L77.14,122.08z"/>
	<path class="st8" d="M129.27,125.74c2.92,0,5.29,2.37,5.29,5.29c0,2.92-2.37,5.3-5.29,5.3c-2.92,0-5.3-2.37-5.3-5.3
		C123.97,128.11,126.34,125.74,129.27,125.74L129.27,125.74z"/>
	<path class="st8" d="M61.11,146.38c2.65,0,4.79,2.15,4.79,4.79c0,2.64-2.14,4.79-4.79,4.79c-2.64,0-4.79-2.14-4.79-4.79
		C56.32,148.53,58.46,146.38,61.11,146.38L61.11,146.38z"/>
</g>
</svg>
