<?xml version="1.0" encoding="utf-8"?>
<!-- Generator: Adobe Illustrator 24.0.3, SVG Export Plug-In . SVG Version: 6.00 Build 0)  -->
<svg version="1.1" id="Calque_1" xmlns="http://www.w3.org/2000/svg" xmlns:xlink="http://www.w3.org/1999/xlink" x="0px" y="0px"
	 viewBox="0 0 169 169" style="enable-background:new 0 0 169 169;" xml:space="preserve">
<style type="text/css">
	.st0{fill-rule:evenodd;clip-rule:evenodd;}
	.st1{fill-rule:evenodd;clip-rule:evenodd;fill:#82E0FF;stroke:#000000;stroke-width:2;stroke-miterlimit:10;}
	.st2{fill-rule:evenodd;clip-rule:evenodd;fill:#C2C7C4;}
	.st3{fill-rule:evenodd;clip-rule:evenodd;fill:#D1DED1;}
	.st4{fill-rule:evenodd;clip-rule:evenodd;fill:#FFFFFF;}
	.st5{fill-rule:evenodd;clip-rule:evenodd;fill:#FFCC40;stroke:#000000;stroke-width:3;stroke-miterlimit:10;}
</style>
<g>
	<path class="st0" d="M-87.06,187.06c-3.43-1.48-7.21-2.31-11.18-2.31c-15.58,0-28.21,12.63-28.21,28.21
		c0,15.38,12.31,27.89,27.61,28.21v0.01h0.6h74.76h1.06v-0.02C-8.83,240.59,2,229.41,2,215.7c0-14.07-11.41-25.48-25.48-25.48
		c-1.25,0-2.48,0.09-3.68,0.26c-3.18-13.88-15.61-24.23-30.45-24.23C-71.2,166.26-82.76,174.94-87.06,187.06L-87.06,187.06z"/>
</g>
<path class="st5" d="M93.1,34.79c0,4.43-3.59,8.03-8.03,8.03c-4.43,0-8.03-3.6-8.03-8.03c0-2.25,3.09-9.43,4.02-12.03l4.01-11.26
	l4.02,11.26C90.01,25.36,93.1,32.53,93.1,34.79L93.1,34.79z M102.33,37.26c-2.22,3.84-0.9,8.75,2.94,10.97
	c3.84,2.22,8.75,0.9,10.97-2.94c1.13-1.95,2.04-9.71,2.54-12.42l2.15-11.75l-9.1,7.74C109.72,30.64,103.46,35.31,102.33,37.26
	L102.33,37.26z M53.9,121.16c2.22-3.84,7.13-5.16,10.97-2.94c3.84,2.22,5.16,7.13,2.94,10.97c-1.13,1.95-7.39,6.62-9.49,8.41
	l-9.1,7.74l2.15-11.75C51.86,130.86,52.77,123.11,53.9,121.16L53.9,121.16z M131.03,100.49c-3.84-2.22-8.75-0.9-10.97,2.94
	c-2.22,3.84-0.9,8.75,2.94,10.97c1.95,1.13,9.71,2.04,12.42,2.54l11.75,2.15l-7.74-9.1C137.65,107.87,132.98,101.61,131.03,100.49
	L131.03,100.49z M47.14,52.05c3.84,2.22,5.15,7.13,2.94,10.97c-2.22,3.84-7.13,5.16-10.97,2.94c-1.95-1.13-6.62-7.39-8.41-9.49
	l-7.74-9.1l11.75,2.15C37.43,50.01,45.19,50.93,47.14,52.05L47.14,52.05z M67.8,37.26c2.22,3.84,0.9,8.75-2.94,10.97
	c-3.84,2.22-8.75,0.9-10.97-2.94c-1.13-1.95-2.04-9.71-2.54-12.42l-2.15-11.75l9.1,7.74C60.42,30.64,66.68,35.31,67.8,37.26
	L67.8,37.26z M116.24,121.16c-2.22-3.84-7.13-5.16-10.97-2.94c-3.84,2.22-5.15,7.13-2.94,10.97c1.13,1.95,7.39,6.62,9.49,8.41
	l9.1,7.74l-2.15-11.75C118.28,130.86,117.36,123.11,116.24,121.16L116.24,121.16z M39.11,100.49c3.84-2.22,8.75-0.9,10.97,2.94
	c2.22,3.84,0.9,8.75-2.94,10.97c-1.95,1.13-9.71,2.04-12.43,2.54l-11.75,2.15l7.74-9.1C32.48,107.87,37.16,101.61,39.11,100.49
	L39.11,100.49z M93.1,131.66c0-4.44-3.59-8.03-8.03-8.03c-4.43,0-8.03,3.59-8.03,8.03c0,2.25,3.09,9.43,4.01,12.03l4.01,11.25
	l4.02-11.25C90.01,141.08,93.1,133.91,93.1,131.66L93.1,131.66z M36.63,75.19c4.44,0,8.03,3.6,8.03,8.03c0,4.43-3.59,8.03-8.03,8.03
	c-2.25,0-9.42-3.09-12.03-4.01l-11.25-4.01l11.25-4.01C27.21,78.28,34.38,75.19,36.63,75.19L36.63,75.19z M133.5,75.19
	c-4.43,0-8.03,3.6-8.03,8.03c0,4.43,3.6,8.03,8.03,8.03c2.25,0,9.43-3.09,12.03-4.01l11.25-4.01l-11.25-4.01
	C142.93,78.28,135.76,75.19,133.5,75.19L133.5,75.19z M123,52.05c-3.84,2.22-5.16,7.13-2.94,10.97c2.22,3.84,7.13,5.16,10.97,2.94
	c1.95-1.13,6.62-7.39,8.41-9.49l7.74-9.1l-11.75,2.15C132.71,50.01,124.95,50.93,123,52.05L123,52.05z"/>
<path class="st5" d="M85.07,46.31c20.39,0,36.91,16.53,36.91,36.91s-16.53,36.91-36.91,36.91c-20.39,0-36.91-16.53-36.91-36.91
	S64.68,46.31,85.07,46.31L85.07,46.31z"/>
</svg>
