<?xml version="1.0" encoding="utf-8"?>
<!-- Generator: Adobe Illustrator 24.0.3, SVG Export Plug-In . SVG Version: 6.00 Build 0)  -->
<svg version="1.1" id="Calque_1" xmlns="http://www.w3.org/2000/svg" xmlns:xlink="http://www.w3.org/1999/xlink" x="0px" y="0px"
	 viewBox="0 0 171.18 170.94" style="enable-background:new 0 0 171.18 170.94;" xml:space="preserve">
<style type="text/css">
	.st0{fill-rule:evenodd;clip-rule:evenodd;fill:#C2C7C4;stroke:#000000;stroke-width:8;stroke-miterlimit:10;}
	.st1{fill-rule:evenodd;clip-rule:evenodd;fill:#D1DED1;stroke:#000000;stroke-width:8;stroke-miterlimit:10;}
	.st2{fill-rule:evenodd;clip-rule:evenodd;fill:#C2C7C4;}
	.st3{fill-rule:evenodd;clip-rule:evenodd;fill:#D1DED1;}
	.st4{fill-rule:evenodd;clip-rule:evenodd;fill:#82E0FF;stroke:#000000;stroke-width:4;stroke-miterlimit:10;}
	.st5{fill-rule:evenodd;clip-rule:evenodd;fill:#D1DED1;stroke:#000000;stroke-width:4;stroke-miterlimit:10;}
	.st6{fill-rule:evenodd;clip-rule:evenodd;}
	.st7{fill-rule:evenodd;clip-rule:evenodd;fill:#FFFFFF;}
	.st8{fill-rule:evenodd;clip-rule:evenodd;fill:#FFFFFF;stroke:#000000;stroke-width:3;stroke-miterlimit:10;}
	.st9{fill-rule:evenodd;clip-rule:evenodd;fill:#FFCC40;stroke:#000000;stroke-width:4;stroke-miterlimit:10;}
	.st10{fill-rule:evenodd;clip-rule:evenodd;fill:#FFFFFF;stroke:#000000;stroke-width:8;stroke-miterlimit:10;}
	
		.st11{fill-rule:evenodd;clip-rule:evenodd;fill:#FFCC40;stroke:#000000;stroke-width:4;stroke-linejoin:round;stroke-miterlimit:10;}
</style>
<g>
	<path class="st6" d="M-83.44,180.61c5.69-11.84,17.73-19.55,31.11-19.55c14.99,0,28.15,9.67,32.77,23.66
		c0.3-0.01,0.61-0.01,0.91-0.01c15.92,0,28.82,12.91,28.82,28.82c0,15.3-11.96,27.92-27.18,28.78c-0.19,0.03-0.39,0.05-0.59,0.05
		h-75.43c-0.11,0-0.22,0-0.32-0.01c-17.02-0.49-30.61-14.45-30.61-31.51c0-17.41,14.12-31.52,31.53-31.52
		C-89.38,179.31-86.36,179.75-83.44,180.61L-83.44,180.61z"/>
	<path class="st7" d="M-81.4,185.26c-3.38-1.46-7.12-2.28-11.04-2.28c-15.38,0-27.85,12.47-27.85,27.85
		c0,15.18,12.15,27.52,27.25,27.84v0.01h0.59h73.79h1.05v-0.02c13.4-0.55,24.1-11.59,24.1-25.12c0-13.89-11.26-25.15-25.15-25.15
		c-1.23,0-2.44,0.09-3.63,0.26c-3.14-13.7-15.4-23.91-30.05-23.91C-65.75,164.74-77.16,173.3-81.4,185.26L-81.4,185.26z"/>
</g>
<g>
	<path class="st1" d="M261.36,177.3c3.36-1.45,7.06-2.26,10.96-2.26c15.26,0,27.63,12.37,27.63,27.63
		c0,15.06-12.05,27.31-27.04,27.62v0.01h-0.59h-73.22h-1.04v-0.02c-13.3-0.55-23.91-11.5-23.91-24.93
		c0-13.78,11.17-24.95,24.95-24.95c1.22,0,2.43,0.09,3.6,0.26c3.12-13.59,15.29-23.72,29.82-23.72
		C245.83,156.93,257.15,165.43,261.36,177.3L261.36,177.3z"/>
	<path class="st10" d="M261.36,177.3c3.36-1.45,7.06-2.26,10.96-2.26c15.26,0,27.63,12.37,27.63,27.63c0,0.9-0.04,1.78-0.13,2.66
		c-5.57,5.25-13.03,8.53-21.26,8.7v0.01h-0.68H193.1h-1.21v-0.03c-6.76-0.28-12.91-2.88-17.7-7.02c-0.04-0.54-0.05-1.09-0.05-1.64
		c0-13.78,11.17-24.95,24.95-24.95c1.22,0,2.43,0.09,3.61,0.26c3.12-13.59,15.29-23.72,29.82-23.72
		C245.83,156.93,257.15,165.43,261.36,177.3L261.36,177.3z"/>
</g>
<path class="st11" d="M105.25,52.74l-41.64,43.2l16.33,4.82l-22.89,26.82c2.4,0.71,9.16,2.67,11.41,3.37l-25.24,31.54l53.57-36.22
	l-13.77-4.06l-5.98-1.77l38.93-27l-22.27-6.58l37.91-26.34L105.25,52.74L105.25,52.74z"/>
<g>
	<path class="st0" d="M114.88,37.73c4.07-1.76,8.56-2.74,13.28-2.74c18.49,0,33.48,14.99,33.48,33.48
		c0,18.25-14.61,33.09-32.77,33.47v0.01h-0.71H39.42h-1.26l0.2-0.03c-16.11-0.66-29.17-13.93-29.17-30.2
		c0-16.7,13.54-30.24,30.24-30.24c1.48,0,2.94,0.11,4.37,0.31c3.78-16.47,18.52-28.75,36.14-28.75
		C96.05,13.05,109.78,23.35,114.88,37.73L114.88,37.73z"/>
	<path class="st1" d="M114.88,37.73c4.07-1.76,8.56-2.74,13.28-2.74c18.49,0,33.48,14.99,33.48,33.48c0,1.09-0.05,2.16-0.15,3.22
		c-6.75,6.37-15.79,10.34-25.76,10.54v0.01h-0.83H32.16H30.7v-0.03c-8.19-0.34-15.65-3.49-21.45-8.51
		c-0.04-0.66-0.07-1.32-0.07-1.99c0-16.7,13.54-30.24,30.24-30.24c1.48,0,2.94,0.11,4.37,0.31c3.78-16.47,18.52-28.75,36.14-28.75
		C96.05,13.05,109.78,23.35,114.88,37.73L114.88,37.73z"/>
</g>
<g>
	<path class="st2" d="M114.88,37.73c4.07-1.76,8.56-2.74,13.28-2.74c18.49,0,33.48,14.99,33.48,33.48
		c0,18.25-14.61,33.09-32.77,33.47v0.01h-0.71H39.42h-1.26v-0.03C22.04,101.26,9.19,87.99,9.19,71.72
		c0-16.7,13.54-30.24,30.24-30.24c1.48,0,2.94,0.11,4.37,0.31c3.78-16.47,18.52-28.75,36.14-28.75
		C96.05,13.05,109.78,23.35,114.88,37.73L114.88,37.73z"/>
	<path class="st3" d="M114.88,37.73c4.07-1.76,8.56-2.74,13.28-2.74c18.49,0,33.48,14.99,33.48,33.48c0,1.09-0.05,2.16-0.15,3.22
		c-6.75,6.37-15.79,10.34-25.76,10.54v0.01h-0.83H32.16H30.7v-0.03c-8.19-0.34-15.65-3.49-21.45-8.51
		c-0.04-0.66-0.07-1.32-0.07-1.99c0-16.7,13.54-30.24,30.24-30.24c1.48,0,2.94,0.11,4.37,0.31c3.78-16.47,18.52-28.75,36.14-28.75
		C96.05,13.05,109.78,23.35,114.88,37.73L114.88,37.73z"/>
</g>
</svg>
