<?xml version="1.0" encoding="utf-8"?>
<!-- Generator: Adobe Illustrator 24.0.3, SVG Export Plug-In . SVG Version: 6.00 Build 0)  -->
<svg version="1.1" id="Calque_1" xmlns="http://www.w3.org/2000/svg" xmlns:xlink="http://www.w3.org/1999/xlink" x="0px" y="0px"
	 viewBox="0 0 171.18 170.94" style="enable-background:new 0 0 171.18 170.94;" xml:space="preserve">
<style type="text/css">
	.st0{fill-rule:evenodd;clip-rule:evenodd;fill:#FFCC40;stroke:#000000;stroke-width:4;stroke-miterlimit:10;}
	.st1{fill-rule:evenodd;clip-rule:evenodd;fill:#D1DED1;stroke:#000000;stroke-width:8;stroke-miterlimit:10;}
	.st2{fill-rule:evenodd;clip-rule:evenodd;fill:#FFFFFF;stroke:#000000;stroke-width:8;stroke-miterlimit:10;}
	.st3{fill-rule:evenodd;clip-rule:evenodd;fill:#C2C7C4;stroke:#000000;stroke-width:8;stroke-miterlimit:10;}
	.st4{fill-rule:evenodd;clip-rule:evenodd;fill:#C2C7C4;}
	.st5{fill-rule:evenodd;clip-rule:evenodd;fill:#D1DED1;}
	.st6{fill-rule:evenodd;clip-rule:evenodd;fill:#82E0FF;stroke:#000000;stroke-width:4;stroke-miterlimit:10;}
	.st7{fill-rule:evenodd;clip-rule:evenodd;fill:#D1DED1;stroke:#000000;stroke-width:4;stroke-miterlimit:10;}
	.st8{fill-rule:evenodd;clip-rule:evenodd;}
	.st9{fill-rule:evenodd;clip-rule:evenodd;fill:#FFFFFF;}
	.st10{fill-rule:evenodd;clip-rule:evenodd;fill:#FFFFFF;stroke:#000000;stroke-width:3;stroke-miterlimit:10;}
</style>
<path class="st0" d="M120.93,47.48c0,3.01-2.44,5.45-5.45,5.45c-3.01,0-5.45-2.44-5.45-5.45c0-1.53,2.1-6.4,2.73-8.17l2.73-7.64
	l2.72,7.64C118.84,41.08,120.93,45.95,120.93,47.48L120.93,47.48z M127.2,49.16c-1.51,2.61-0.61,5.94,2,7.45
	c2.61,1.51,5.94,0.61,7.45-1.99c0.76-1.32,1.38-6.59,1.72-8.44l1.46-7.98l-6.18,5.25C132.22,44.66,127.97,47.83,127.2,49.16
	L127.2,49.16z M94.32,106.12c1.51-2.61,4.84-3.5,7.45-1.99c2.61,1.5,3.5,4.84,2,7.45c-0.76,1.32-5.02,4.49-6.45,5.71l-6.18,5.26
	l1.46-7.98C92.93,112.71,93.55,107.44,94.32,106.12L94.32,106.12z M146.69,92.08c-2.61-1.5-5.94-0.61-7.45,2
	c-1.51,2.61-0.61,5.94,1.99,7.44c1.32,0.76,6.59,1.39,8.44,1.72l7.98,1.46l-5.25-6.18C151.18,97.1,148.01,92.85,146.69,92.08
	L146.69,92.08z M89.73,59.2c2.61,1.5,3.5,4.84,1.99,7.45c-1.51,2.61-4.84,3.5-7.45,2c-1.32-0.77-4.49-5.02-5.71-6.44l-5.26-6.18
	l7.98,1.46C83.14,57.81,88.4,58.43,89.73,59.2L89.73,59.2z M103.76,49.16c1.5,2.61,0.61,5.94-2,7.45c-2.61,1.51-5.94,0.61-7.45-1.99
	c-0.76-1.32-1.38-6.59-1.72-8.44l-1.46-7.98l6.18,5.26C98.74,44.66,102.99,47.83,103.76,49.16L103.76,49.16z M136.65,106.12
	c-1.51-2.61-4.84-3.5-7.45-1.99c-2.61,1.5-3.5,4.84-2,7.45c0.76,1.32,5.01,4.49,6.45,5.71l6.18,5.26l-1.46-7.98
	C138.03,112.71,137.41,107.44,136.65,106.12L136.65,106.12z M84.27,92.08c2.61-1.5,5.94-0.61,7.45,2c1.51,2.61,0.61,5.94-1.99,7.44
	c-1.32,0.76-6.59,1.39-8.44,1.72l-7.98,1.46l5.26-6.18C79.78,97.1,82.95,92.85,84.27,92.08L84.27,92.08z M120.93,113.25
	c0-3.01-2.44-5.45-5.45-5.45c-3.01,0-5.45,2.44-5.45,5.45c0,1.53,2.1,6.4,2.73,8.17l2.73,7.64l2.72-7.64
	C118.84,119.65,120.93,114.77,120.93,113.25L120.93,113.25z M82.59,74.91c3.01,0,5.45,2.44,5.45,5.45c0,3.01-2.44,5.45-5.45,5.45
	c-1.53,0-6.4-2.1-8.17-2.73l-7.64-2.72l7.64-2.72C76.2,77.01,81.07,74.91,82.59,74.91L82.59,74.91z M148.37,74.91
	c-3.01,0-5.45,2.44-5.45,5.45c0,3.01,2.44,5.45,5.45,5.45c1.53,0,6.4-2.1,8.17-2.73l7.64-2.72l-7.64-2.72
	C154.77,77.01,149.9,74.91,148.37,74.91L148.37,74.91z M141.24,59.2c-2.61,1.5-3.5,4.84-1.99,7.45c1.5,2.61,4.84,3.5,7.45,2
	c1.32-0.77,4.49-5.02,5.71-6.44l5.25-6.18l-7.98,1.46C147.83,57.81,142.56,58.43,141.24,59.2L141.24,59.2z"/>
<path class="st0" d="M115.48,55.3c13.84,0,25.06,11.22,25.06,25.06c0,13.84-11.22,25.06-25.06,25.06
	c-13.84,0-25.06-11.22-25.06-25.06C90.42,66.52,101.64,55.3,115.48,55.3L115.48,55.3z"/>
<path class="st1" d="M94.36,81.3c3.36-1.45,7.06-2.26,10.96-2.26c15.26,0,27.63,12.37,27.63,27.63c0,15.06-12.05,27.31-27.04,27.62
	v0.01h-0.59H32.09h-1.04v-0.02c-13.3-0.55-23.91-11.5-23.91-24.93c0-13.78,11.17-24.95,24.95-24.95c1.22,0,2.43,0.09,3.6,0.26
	c3.12-13.59,15.29-23.72,29.82-23.72C78.83,60.93,90.15,69.43,94.36,81.3L94.36,81.3z"/>
<path class="st2" d="M94.36,81.3c3.36-1.45,7.06-2.26,10.96-2.26c15.26,0,27.63,12.37,27.63,27.63c0,0.9-0.04,1.78-0.13,2.66
	c-5.57,5.25-13.03,8.53-21.26,8.7v0.01h-0.68H26.1h-1.21v-0.03c-6.76-0.28-12.91-2.88-17.7-7.02c-0.04-0.54-0.05-1.09-0.05-1.64
	c0-13.78,11.17-24.95,24.95-24.95c1.22,0,2.43,0.09,3.61,0.26c3.12-13.59,15.29-23.72,29.82-23.72
	C78.83,60.93,90.15,69.43,94.36,81.3L94.36,81.3z"/>
<g>
	<path class="st8" d="M-83.44,180.61c5.69-11.84,17.73-19.55,31.11-19.55c14.99,0,28.15,9.67,32.77,23.66
		c0.3-0.01,0.61-0.01,0.91-0.01c15.92,0,28.82,12.91,28.82,28.82c0,15.3-11.96,27.92-27.18,28.78c-0.19,0.03-0.39,0.05-0.59,0.05
		h-75.43c-0.11,0-0.22,0-0.32-0.01c-17.02-0.49-30.61-14.45-30.61-31.51c0-17.41,14.12-31.52,31.53-31.52
		C-89.38,179.31-86.36,179.75-83.44,180.61L-83.44,180.61z"/>
	<path class="st9" d="M-81.4,185.26c-3.38-1.46-7.12-2.28-11.04-2.28c-15.38,0-27.85,12.47-27.85,27.85
		c0,15.18,12.15,27.52,27.25,27.84v0.01h0.59h73.79h1.05v-0.02c13.4-0.55,24.1-11.59,24.1-25.12c0-13.89-11.26-25.15-25.15-25.15
		c-1.23,0-2.44,0.09-3.63,0.26c-3.14-13.7-15.4-23.91-30.05-23.91C-65.75,164.74-77.16,173.3-81.4,185.26L-81.4,185.26z"/>
</g>
<path class="st5" d="M94.36,81.3c3.36-1.45,7.06-2.26,10.96-2.26c15.26,0,27.63,12.37,27.63,27.63c0,15.06-12.05,27.31-27.04,27.62
	v0.01h-0.59H32.09h-1.04v-0.02c-13.3-0.55-23.91-11.5-23.91-24.93c0-13.78,11.17-24.95,24.95-24.95c1.22,0,2.43,0.09,3.6,0.26
	c3.12-13.59,15.29-23.72,29.82-23.72C78.83,60.93,90.15,69.43,94.36,81.3L94.36,81.3z"/>
<path class="st9" d="M94.36,81.3c3.36-1.45,7.06-2.26,10.96-2.26c15.26,0,27.63,12.37,27.63,27.63c0,0.9-0.04,1.78-0.13,2.66
	c-5.57,5.25-13.03,8.53-21.26,8.7v0.01h-0.68H26.1h-1.21v-0.03c-6.76-0.28-12.91-2.88-17.7-7.02c-0.04-0.54-0.05-1.09-0.05-1.64
	c0-13.78,11.17-24.95,24.95-24.95c1.22,0,2.43,0.09,3.61,0.26c3.12-13.59,15.29-23.72,29.82-23.72
	C78.83,60.93,90.15,69.43,94.36,81.3L94.36,81.3z"/>
</svg>
